<svg width="23" height="23" viewBox="0 0 33 33" fill="none" xmlns="http://www.w3.org/2000/svg">
<path d="M25.673 21.5837C25.673 21.974 25.3662 22.2941 24.9919 22.2941H20.2436C19.8693 22.2941 19.5625 21.974 19.5625 21.5837V16.6308C19.5625 16.2404 19.8693 15.9204 20.2436 15.9204H24.9919C25.3662 15.9204 25.673 16.2404 25.673 16.6308V21.5837Z" fill="#07BFDD"/>
<path d="M31.8566 15.3395C31.8566 15.7299 31.5498 16.0499 31.1755 16.0499H26.4272C26.0529 16.0499 25.7461 15.7299 25.7461 15.3395V10.3867C25.7461 9.9963 26.0529 9.67627 26.4272 9.67627H31.1755C31.5498 9.67627 31.8566 9.9963 31.8566 10.3867V15.3395Z" fill="#007FFF"/>
<path d="M13.4738 21.5837C13.4738 21.9741 13.167 22.2941 12.7927 22.2941H8.04435C7.6701 22.2941 7.36328 21.9741 7.36328 21.5837V16.6308C7.36328 16.2404 7.6701 15.9204 8.04435 15.9204H12.7927C13.167 15.9204 13.4738 16.2404 13.4738 16.6308V21.5837Z" fill="#1DA5F8"/>
<path d="M7.2941 15.3405C7.2941 15.7309 6.98728 16.0509 6.61303 16.0509H1.86466C1.49041 16.0509 1.18359 15.7321 1.18359 15.3405V10.3876C1.18359 9.99728 1.49041 9.67725 1.86466 9.67725H6.61303C6.98728 9.67725 7.2941 9.99728 7.2941 10.3876V15.3405Z" fill="#8CC936"/>
</svg>
