<svg width="32" height="31" viewBox="0 0 32 31" fill="none" xmlns="http://www.w3.org/2000/svg">
<path opacity="0.2" d="M5.56062 27.0351C7.13304 27.0351 8.40773 25.7604 8.40773 24.1879C8.40773 22.6155 7.13304 21.3408 5.56062 21.3408C3.9882 21.3408 2.7135 22.6155 2.7135 24.1879C2.7135 25.7604 3.9882 27.0351 5.56062 27.0351Z" fill="#009379"/>
<path opacity="0.2" d="M14.9973 11.85C14.9973 13.3928 13.7466 14.6435 12.2039 14.6435C10.6611 14.6435 9.41042 13.3928 9.41042 11.85C9.41042 10.3073 10.6611 9.0566 12.2039 9.0566C13.7466 9.0566 14.9973 10.3073 14.9973 11.85Z" fill="#009379" stroke="#009379" stroke-width="0.107332"/>
<path opacity="0.2" d="M22.5896 19.4428C22.5896 20.9856 21.3389 22.2363 19.7961 22.2363C18.2533 22.2363 17.0027 20.9856 17.0027 19.4428C17.0027 17.9 18.2533 16.6494 19.7961 16.6494C21.3389 16.6494 22.5896 17.9 22.5896 19.4428Z" fill="#009379" stroke="#009379" stroke-width="0.107332"/>
<path opacity="0.2" d="M29.2329 7.1059C29.2329 8.64868 27.9822 9.89935 26.4395 9.89935C24.8967 9.89935 23.646 8.64868 23.646 7.1059C23.646 5.56313 24.8967 4.31245 26.4395 4.31245C27.9822 4.31245 29.2329 5.56313 29.2329 7.1059Z" fill="#009379" stroke="#009379" stroke-width="0.107332"/>
<path d="M5.56062 27.0351C7.13304 27.0351 8.40773 25.7604 8.40773 24.1879C8.40773 22.6155 7.13304 21.3408 5.56062 21.3408C3.9882 21.3408 2.7135 22.6155 2.7135 24.1879C2.7135 25.7604 3.9882 27.0351 5.56062 27.0351Z" stroke="#009379" stroke-width="1.71731" stroke-linecap="round" stroke-linejoin="round"/>
<path d="M12.2039 14.6972C13.7763 14.6972 15.051 13.4225 15.051 11.85C15.051 10.2776 13.7763 9.00293 12.2039 9.00293C10.6314 9.00293 9.35675 10.2776 9.35675 11.85C9.35675 13.4225 10.6314 14.6972 12.2039 14.6972Z" stroke="#009379" stroke-width="1.71731" stroke-linecap="round" stroke-linejoin="round"/>
<path d="M19.7961 22.2899C21.3685 22.2899 22.6432 21.0152 22.6432 19.4428C22.6432 17.8704 21.3685 16.5957 19.7961 16.5957C18.2237 16.5957 16.949 17.8704 16.949 19.4428C16.949 21.0152 18.2237 22.2899 19.7961 22.2899Z" stroke="#009379" stroke-width="1.71731" stroke-linecap="round" stroke-linejoin="round"/>
<path d="M26.4395 9.95302C28.0119 9.95302 29.2866 8.67832 29.2866 7.1059C29.2866 5.53349 28.0119 4.25879 26.4395 4.25879C24.867 4.25879 23.5923 5.53349 23.5923 7.1059C23.5923 8.67832 24.867 9.95302 26.4395 9.95302Z" stroke="#009379" stroke-width="1.71731" stroke-linecap="round" stroke-linejoin="round"/>
<path d="M10.8515 14.3525L6.91296 21.6839" stroke="#009379" stroke-width="1.71731" stroke-linecap="round" stroke-linejoin="round"/>
<path d="M17.7794 17.4251L14.2205 13.8662" stroke="#009379" stroke-width="1.71731" stroke-linecap="round" stroke-linejoin="round"/>
<path d="M25.0871 9.6084L21.1486 16.9397" stroke="#009379" stroke-width="1.71731" stroke-linecap="round" stroke-linejoin="round"/>
</svg>
