<svg width="32" height="31" viewBox="0 0 32 31" fill="none" xmlns="http://www.w3.org/2000/svg">
<path opacity="0.2" d="M9.08386 26.3587C8.99555 26.4483 8.89029 26.5195 8.7742 26.5681C8.65811 26.6167 8.53352 26.6418 8.40767 26.6418C8.28181 26.6418 8.15722 26.6167 8.04113 26.5681C7.92504 26.5195 7.81978 26.4483 7.73148 26.3587L5.2877 23.9149C5.19803 23.8266 5.12682 23.7213 5.07822 23.6052C5.02961 23.4891 5.00458 23.3645 5.00458 23.2387C5.00458 23.1128 5.02961 22.9882 5.07822 22.8722C5.12682 22.7561 5.19803 22.6508 5.2877 22.5625L17.8981 9.95215L21.6942 13.7483L9.08386 26.3587Z" fill="#FF6250"/>
<path d="M26.4394 15.6465V21.3407" stroke="#FF6250" stroke-width="1.71731" stroke-linecap="round" stroke-linejoin="round"/>
<path d="M23.5923 18.4932H29.2865" stroke="#FF6250" stroke-width="1.71731" stroke-linecap="round" stroke-linejoin="round"/>
<path d="M10.7803 5.20703V9.95222" stroke="#FF6250" stroke-width="1.71731" stroke-linecap="round" stroke-linejoin="round"/>
<path d="M8.40765 7.5791H13.1528" stroke="#FF6250" stroke-width="1.71731" stroke-linecap="round" stroke-linejoin="round"/>
<path d="M20.7452 22.29V26.0862" stroke="#FF6250" stroke-width="1.71731" stroke-linecap="round" stroke-linejoin="round"/>
<path d="M18.8471 24.1885H22.6433" stroke="#FF6250" stroke-width="1.71731" stroke-linecap="round" stroke-linejoin="round"/>
<path d="M22.9311 4.92642L5.29033 22.5672C4.91971 22.9378 4.91971 23.5387 5.29033 23.9094L7.74394 26.363C8.11456 26.7336 8.71546 26.7336 9.08608 26.363L26.7269 8.72216C27.0975 8.35154 27.0975 7.75064 26.7269 7.38002L24.2733 4.92642C23.9026 4.55579 23.3018 4.55579 22.9311 4.92642Z" stroke="#FF6250" stroke-width="1.71731" stroke-linecap="round" stroke-linejoin="round"/>
<path d="M17.8981 9.95215L21.6942 13.7483" stroke="#FF6250" stroke-width="1.71731" stroke-linecap="round" stroke-linejoin="round"/>
</svg>
